<svg width="23" height="24" viewBox="0 0 23 24" fill="none" xmlns="http://www.w3.org/2000/svg">
<path d="M18.9844 6.375H16.1719V4.61719C16.1719 3.84155 15.5413 3.21094 14.7656 3.21094H7.73438C6.95874 3.21094 6.32812 3.84155 6.32812 4.61719V6.375H3.51562C3.12671 6.375 2.8125 6.68921 2.8125 7.07812V7.78125C2.8125 7.87793 2.8916 7.95703 2.98828 7.95703H4.31543L4.85815 19.4487C4.89331 20.198 5.51294 20.7891 6.26221 20.7891H16.2378C16.9893 20.7891 17.6067 20.2002 17.6418 19.4487L18.1846 7.95703H19.5117C19.6084 7.95703 19.6875 7.87793 19.6875 7.78125V7.07812C19.6875 6.68921 19.3733 6.375 18.9844 6.375ZM14.5898 6.375H7.91016V4.79297H14.5898V6.375Z" fill="#BC98F3"/>
</svg>
