<svg width="400" height="400" viewBox="0 0 400 400" fill="none" xmlns="http://www.w3.org/2000/svg">
<path d="M352.825 285.15C367.366 259.126 374.999 229.811 374.999 200C374.999 170.189 367.366 140.874 352.825 114.85L355.175 112.5C359.856 107.809 362.484 101.452 362.484 94.825C362.484 88.1979 359.856 81.8414 355.175 77.15L322.85 44.825C318.157 40.1474 311.801 37.5208 305.175 37.5208C298.549 37.5208 292.193 40.1474 287.5 44.825L285.15 47.1625C259.124 32.6254 229.81 24.9934 200 24.9934C170.19 24.9934 140.876 32.6254 114.85 47.1625L112.5 44.825C107.809 40.1443 101.452 37.5157 94.825 37.5157C88.1979 37.5157 81.8414 40.1443 77.15 44.825L44.825 77.15C40.1443 81.8414 37.5157 88.1979 37.5157 94.825C37.5157 101.452 40.1443 107.809 44.825 112.5L47.175 114.85C32.6391 140.876 25.0078 170.19 25.0078 200C25.0078 229.81 32.6391 259.124 47.175 285.15L44.825 287.5C40.1443 292.191 37.5157 298.548 37.5157 305.175C37.5157 311.802 40.1443 318.159 44.825 322.85L77.15 355.175C81.8414 359.856 88.1979 362.484 94.825 362.484C101.452 362.484 107.809 359.856 112.5 355.175L114.85 352.825C140.876 367.362 170.19 374.994 200 374.994C229.81 374.994 259.124 367.362 285.15 352.825L287.5 355.175C292.191 359.856 298.548 362.484 305.175 362.484C311.802 362.484 318.159 359.856 322.85 355.175L355.175 322.85C359.856 318.159 362.484 311.802 362.484 305.175C362.484 298.548 359.856 292.191 355.175 287.5L352.825 285.15ZM350 200C349.991 223.13 344.622 245.944 334.312 266.65L285.637 217.95C288.128 206.109 288.128 193.879 285.637 182.037L334.312 133.35C344.622 154.056 349.991 176.87 350 200V200ZM337.5 94.825L275.812 156.5C268.073 143.073 256.927 131.927 243.5 124.188L305.175 62.5L337.5 94.825ZM200 262.5C187.639 262.5 175.555 258.834 165.277 251.967C154.999 245.099 146.988 235.338 142.258 223.918C137.527 212.497 136.289 199.931 138.701 187.807C141.112 175.683 147.065 164.547 155.806 155.806C164.547 147.065 175.683 141.112 187.807 138.701C199.931 136.289 212.497 137.527 223.918 142.258C235.338 146.988 245.099 154.999 251.967 165.277C258.834 175.555 262.5 187.639 262.5 200C262.48 216.57 255.889 232.456 244.172 244.172C232.456 255.889 216.57 262.48 200 262.5V262.5ZM266.437 65.875L217.95 114.375C206.109 111.885 193.879 111.885 182.037 114.375L133.562 65.875C154.288 55.8924 176.996 50.7086 200 50.7086C223.004 50.7086 245.712 55.8924 266.437 65.875V65.875ZM94.8125 62.5L156.5 124.188C143.074 131.927 131.927 143.074 124.187 156.5L62.5 94.8375L94.8125 62.5ZM50 200C50.01 176.874 55.3796 154.064 65.6875 133.362L114.362 182.05C111.872 193.891 111.872 206.121 114.362 217.962L65.6875 266.625C55.3815 245.927 50.0119 223.122 50 200V200ZM94.825 337.5L62.5 305.175L124.187 243.5C131.925 256.932 143.071 268.083 156.5 275.825L94.825 337.5ZM133.562 334.125L182.037 285.637C193.879 288.128 206.109 288.128 217.95 285.637L266.45 334.125C245.723 344.109 223.013 349.294 200.006 349.294C177 349.294 154.289 344.109 133.562 334.125V334.125ZM305.187 337.5L243.5 275.813C256.926 268.073 268.073 256.926 275.812 243.5L337.5 305.175L305.187 337.5Z" fill="#BC98F3"/>
</svg>
