<svg width="50" height="50" viewBox="0 0 50 50" fill="none" xmlns="http://www.w3.org/2000/svg">
<path d="M23.75 16.25C23.75 15.9185 23.6183 15.6005 23.3839 15.3661C23.1495 15.1317 22.8315 15 22.5 15C22.1685 15 21.8505 15.1317 21.6161 15.3661C21.3817 15.6005 21.25 15.9185 21.25 16.25V21.25H16.25C15.9185 21.25 15.6005 21.3817 15.3661 21.6161C15.1317 21.8505 15 22.1685 15 22.5C15 22.8315 15.1317 23.1495 15.3661 23.3839C15.6005 23.6183 15.9185 23.75 16.25 23.75H21.25V28.75C21.25 29.0815 21.3817 29.3995 21.6161 29.6339C21.8505 29.8683 22.1685 30 22.5 30C22.8315 30 23.1495 29.8683 23.3839 29.6339C23.6183 29.3995 23.75 29.0815 23.75 28.75V23.75H28.75C29.0815 23.75 29.3995 23.6183 29.6339 23.3839C29.8683 23.1495 30 22.8315 30 22.5C30 22.1685 29.8683 21.8505 29.6339 21.6161C29.3995 21.3817 29.0815 21.25 28.75 21.25H23.75V16.25ZM11.25 5C9.5924 5 8.00269 5.65848 6.83058 6.83058C5.65848 8.00269 5 9.5924 5 11.25V33.75C5 35.4076 5.65848 36.9973 6.83058 38.1694C8.00269 39.3415 9.5924 40 11.25 40H33.75C35.4076 40 36.9973 39.3415 38.1694 38.1694C39.3415 36.9973 40 35.4076 40 33.75V11.25C40 9.5924 39.3415 8.00269 38.1694 6.83058C36.9973 5.65848 35.4076 5 33.75 5H11.25ZM7.5 11.25C7.5 10.2554 7.89509 9.30161 8.59835 8.59835C9.30161 7.89509 10.2554 7.5 11.25 7.5H33.75C34.7446 7.5 35.6984 7.89509 36.4017 8.59835C37.1049 9.30161 37.5 10.2554 37.5 11.25V33.75C37.5 34.7446 37.1049 35.6984 36.4017 36.4017C35.6984 37.1049 34.7446 37.5 33.75 37.5H11.25C10.2554 37.5 9.30161 37.1049 8.59835 36.4017C7.89509 35.6984 7.5 34.7446 7.5 33.75V11.25ZM18.75 45C16.4593 45.0033 14.2592 44.1053 12.625 42.5H36.25C37.9076 42.5 39.4973 41.8415 40.6694 40.6694C41.8415 39.4973 42.5 37.9076 42.5 36.25V12.625C44.0475 14.205 45 16.365 45 18.75V36.25C45 38.5706 44.0781 40.7962 42.4372 42.4372C40.7962 44.0781 38.5706 45 36.25 45H18.75Z" fill="#BC98F3"/>
</svg>
