<svg width="400" height="400" viewBox="0 0 400 400" fill="none" xmlns="http://www.w3.org/2000/svg">
<path d="M341.6 93.7833C348.928 96.3587 355.276 101.146 359.766 107.485C364.256 113.823 366.668 121.399 366.667 129.167V295.833C366.667 314.619 359.204 332.636 345.92 345.92C332.636 359.204 314.619 366.667 295.833 366.667H129.167C121.399 366.668 113.823 364.256 107.484 359.766C101.146 355.276 96.3586 348.928 93.7832 341.6L128.733 341.667H295.833C307.989 341.667 319.647 336.838 328.242 328.242C336.838 319.647 341.667 307.989 341.667 295.833V129.167L341.6 128.317V93.7833ZM287.433 33.3333C297.379 33.3333 306.917 37.2842 313.95 44.3168C320.982 51.3494 324.933 60.8877 324.933 70.8333V287.45C324.933 297.396 320.982 306.934 313.95 313.966C306.917 320.999 297.379 324.95 287.433 324.95H70.8333C60.8876 324.95 51.3494 320.999 44.3167 313.966C37.2841 306.934 33.3333 297.396 33.3333 287.45V70.8333C33.3333 60.8877 37.2841 51.3494 44.3167 44.3168C51.3494 37.2842 60.8876 33.3333 70.8333 33.3333H287.45H287.433ZM179.167 112.5C176.146 112.5 173.228 113.594 170.951 115.579C168.675 117.565 167.194 120.307 166.783 123.3L166.667 125V166.667H125C121.833 166.668 118.784 167.871 116.47 170.033C114.156 172.195 112.749 175.155 112.533 178.315C112.317 181.474 113.309 184.598 115.307 187.055C117.306 189.512 120.162 191.118 123.3 191.55L125 191.667H166.667V233.333C166.668 236.5 167.871 239.549 170.033 241.863C172.195 244.177 175.155 245.585 178.315 245.8C181.474 246.016 184.598 245.025 187.055 243.026C189.512 241.028 191.118 238.171 191.55 235.033L191.667 233.333V191.667H233.333C236.5 191.666 239.549 190.463 241.863 188.3C244.177 186.138 245.584 183.178 245.8 180.019C246.016 176.859 245.025 173.735 243.026 171.278C241.027 168.822 238.171 167.215 235.033 166.783L233.333 166.667H191.667V125C191.667 121.685 190.35 118.505 188.005 116.161C185.661 113.817 182.482 112.5 179.167 112.5Z" fill="#BC98F3"/>
</svg>
