<svg width="50" height="50" viewBox="0 0 50 50" fill="none" xmlns="http://www.w3.org/2000/svg">
<path d="M45.0684 13.8477C44.4139 12.3322 43.4701 10.9589 42.29 9.80469C41.109 8.64701 39.7166 7.72701 38.1885 7.09473C36.6039 6.43649 34.9043 6.09957 33.1885 6.10352C30.7812 6.10352 28.4326 6.7627 26.3916 8.00782C25.9033 8.30567 25.4395 8.63282 25 8.98926C24.5605 8.63282 24.0967 8.30567 23.6084 8.00782C21.5674 6.7627 19.2187 6.10352 16.8115 6.10352C15.0781 6.10352 13.3984 6.43555 11.8115 7.09473C10.2783 7.7295 8.89648 8.64258 7.70996 9.80469C6.5283 10.9576 5.58436 12.3312 4.93164 13.8477C4.25293 15.4248 3.90625 17.0996 3.90625 18.8232C3.90625 20.4492 4.23828 22.1436 4.89746 23.8672C5.44922 25.3076 6.24023 26.8018 7.25098 28.3106C8.85254 30.6982 11.0547 33.1885 13.7891 35.7129C18.3203 39.8975 22.8076 42.7881 22.998 42.9053L24.1553 43.6475C24.668 43.9746 25.3271 43.9746 25.8398 43.6475L26.9971 42.9053C27.1875 42.7832 31.6699 39.8975 36.2061 35.7129C38.9404 33.1885 41.1426 30.6982 42.7441 28.3106C43.7549 26.8018 44.5508 25.3076 45.0977 23.8672C45.7568 22.1436 46.0889 20.4492 46.0889 18.8232C46.0938 17.0996 45.7471 15.4248 45.0684 13.8477Z" fill="#BC98F3"/>
</svg>
