<svg width="400" height="400" viewBox="0 0 400 400" fill="none" xmlns="http://www.w3.org/2000/svg">
<path d="M95.1944 327.217C95.1944 327.217 84.0833 252.217 150.75 252.217C168.478 264.039 183.672 272.206 200.75 272.172H200.056C217.133 272.206 230.1 260.15 247.833 248.328C334.333 248.328 307.833 327.217 307.833 327.217" fill="#92D3F5"/>
<path d="M273.872 327.006V255.478L248.922 251.122V291.372H149.606L149.617 251.122L123.694 255.478V327.006H273.872Z" fill="#61B2E4"/>
<path d="M372.706 241.239L334.094 332.067H195.261L233.872 241.239H372.706Z" fill="#D0CFCE"/>
<path d="M373.906 241.239L335.294 332.067H285.35L323.961 241.239H373.906Z" fill="#9B9B9A"/>
<path d="M273.128 187.711C261.389 217.072 231.906 236.061 197.4 236.061C167.65 236.061 134.567 217.683 122.828 188.322L122.411 187.322C118.689 178.111 119.289 166.839 119.289 156.3L131.256 52.0556L164.633 84.5167C174.457 80.3823 185.009 78.259 195.667 78.2722H199.133C209.791 78.259 220.343 80.3823 230.167 84.5167L266.806 48.8333L278.956 157.922C278.969 168.139 277.007 178.262 273.178 187.733" fill="#F4AA41"/>
<path d="M197.4 236.056C232.017 237.167 263.817 217.183 275.556 187.822L275.917 187.078C279.639 177.867 279.044 164.867 279.044 154.328L266.806 48.8333" fill="#E27022"/>
<path d="M125.844 98.3333L123.139 124.6L273.872 115.483L272.3 101.85L125.844 98.3333V98.3333ZM282.761 108.889C282.761 111.086 282.109 113.235 280.889 115.062C279.668 116.889 277.932 118.313 275.902 119.154C273.872 119.995 271.638 120.215 269.482 119.787C267.327 119.358 265.347 118.3 263.793 116.746C262.239 115.192 261.181 113.212 260.752 111.057C260.324 108.901 260.544 106.667 261.385 104.637C262.226 102.607 263.65 100.871 265.477 99.6503C267.304 98.4294 269.452 97.7778 271.65 97.7778C274.597 97.7778 277.423 98.9484 279.507 101.032C281.59 103.116 282.761 105.942 282.761 108.889Z" fill="#B399C8"/>
<path d="M261.511 138.75C261.511 138.75 216.133 157.678 218.272 160.083C261.689 199.061 265.094 144.178 261.511 138.75ZM136.822 138.75C136.822 138.75 178.806 161.028 180.067 160.083C138.15 201.106 132.589 147.656 136.822 138.75V138.75ZM298.456 287.433C297.053 290.533 294.844 293.2 292.059 295.155C289.273 297.109 286.014 298.28 282.622 298.544C276.494 298.544 273.622 293.567 276.233 287.433C277.636 284.334 279.844 281.669 282.628 279.714C285.412 277.76 288.67 276.588 292.061 276.322C298.189 276.322 301.056 281.3 298.45 287.433" fill="white"/>
<path d="M204.844 268.883C202.885 269.186 200.905 269.334 198.922 269.328H199.617C182.539 269.367 167.35 261.2 149.617 249.378C82.95 249.378 94.0611 321.6 94.0611 321.6" stroke="black" stroke-width="11.1111" stroke-linecap="round" stroke-linejoin="round"/>
<path d="M134.317 332.072H195.261M197.039 289.628H149.606L149.617 249.378L197.039 289.628ZM123.694 254.206V321.483V254.206ZM195.261 332.067H334.094L372.706 241.239H233.872L195.261 332.067V332.067Z" stroke="black" stroke-width="11.1111" stroke-linecap="round" stroke-linejoin="round"/>
<path d="M185.594 180.972H212.744M212.744 197.717L199.167 180.972L212.744 197.717ZM185.594 197.717L199.167 180.972L185.594 197.717Z" stroke="black" stroke-width="10" stroke-linecap="round" stroke-linejoin="round"/>
<path d="M125.067 184.678C121.324 175.528 119.405 165.735 119.417 155.85L131.294 50.35L167.128 84.8556C176.744 80.8578 187.058 78.8071 197.472 78.8222H200.861C211.279 78.8067 221.597 80.8573 231.217 84.8556L267.039 50.3556L270.739 85.9M276.483 132.606L278.917 155.85C278.929 165.737 277.01 175.532 273.267 184.683L276.483 132.606Z" stroke="black" stroke-width="11.1111" stroke-linecap="round" stroke-linejoin="round"/>
<path d="M156.178 220.678C168.592 228.323 182.892 232.357 197.472 232.328H200.861C215.441 232.357 229.741 228.323 242.156 220.678" stroke="black" stroke-width="10" stroke-linecap="round" stroke-linejoin="round"/>
<path d="M158.444 160.878C162.194 160.878 165.233 157.878 165.233 154.178C165.233 150.477 162.194 147.478 158.444 147.478C154.695 147.478 151.656 150.477 151.656 154.178C151.656 157.878 154.695 160.878 158.444 160.878Z" fill="black"/>
<path d="M239.894 160.878C243.644 160.878 246.683 157.878 246.683 154.178C246.683 150.477 243.644 147.478 239.894 147.478C236.145 147.478 233.106 150.477 233.106 154.178C233.106 157.878 236.145 160.878 239.894 160.878Z" fill="black"/>
<path d="M261.1 101.578L125.844 98.3333L123.139 124.6L261.139 116.256M261.511 138.594C261.511 138.594 216.133 157.528 218.272 159.928C261.689 198.906 265.094 144.028 261.511 138.594ZM282.9 206.639L252.356 189.889L282.9 206.639ZM270.433 221.161L239.894 204.417L270.433 221.161ZM136.822 138.594C136.822 138.594 178.806 160.872 180.067 159.928C138.15 200.95 132.589 147.506 136.822 138.594ZM115.439 206.639L145.978 189.889L115.439 206.639ZM127.9 221.161L158.444 204.417L127.9 221.161Z" stroke="black" stroke-width="8.88889" stroke-linecap="round" stroke-linejoin="round"/>
<path d="M280.539 108.889C280.539 111.086 279.887 113.235 278.666 115.062C277.445 116.889 275.71 118.313 273.68 119.154C271.65 119.995 269.415 120.215 267.26 119.787C265.105 119.358 263.125 118.3 261.571 116.746C260.017 115.192 258.959 113.212 258.53 111.057C258.101 108.901 258.321 106.667 259.162 104.637C260.003 102.607 261.428 100.871 263.255 99.6503C265.082 98.4294 267.23 97.7778 269.428 97.7778C272.375 97.7778 275.201 98.9484 277.284 101.032C279.368 103.116 280.539 105.942 280.539 108.889Z" stroke="black" stroke-width="8.88889" stroke-linecap="round" stroke-linejoin="round"/>
</svg>
