<svg width="50" height="50" viewBox="0 0 50 50" fill="none" xmlns="http://www.w3.org/2000/svg">
<path d="M1.5625 30.9375C1.9769 30.9375 2.37433 31.1021 2.66735 31.3951C2.96038 31.6881 3.125 32.0856 3.125 32.5V40.3125C3.125 41.1413 3.45424 41.9361 4.04029 42.5222C4.62634 43.1082 5.4212 43.4375 6.25 43.4375H43.75C44.5788 43.4375 45.3737 43.1082 45.9597 42.5222C46.5458 41.9361 46.875 41.1413 46.875 40.3125V32.5C46.875 32.0856 47.0396 31.6881 47.3326 31.3951C47.6257 31.1021 48.0231 30.9375 48.4375 30.9375C48.8519 30.9375 49.2493 31.1021 49.5424 31.3951C49.8354 31.6881 50 32.0856 50 32.5V40.3125C50 41.9701 49.3415 43.5598 48.1694 44.7319C46.9973 45.904 45.4076 46.5625 43.75 46.5625H6.25C4.5924 46.5625 3.00269 45.904 1.83058 44.7319C0.65848 43.5598 0 41.9701 0 40.3125V32.5C0 32.0856 0.16462 31.6881 0.457646 31.3951C0.750671 31.1021 1.1481 30.9375 1.5625 30.9375V30.9375Z" fill="#BC98F3"/>
<path d="M23.8938 3.58124C24.0389 3.43573 24.2113 3.32028 24.4012 3.24151C24.591 3.16274 24.7945 3.12219 25 3.12219C25.2055 3.12219 25.409 3.16274 25.5989 3.24151C25.7887 3.32028 25.9611 3.43573 26.1063 3.58124L35.4813 12.9562C35.7747 13.2496 35.9395 13.6476 35.9395 14.0625C35.9395 14.4774 35.7747 14.8753 35.4813 15.1687C35.1879 15.4621 34.7899 15.627 34.375 15.627C33.9601 15.627 33.5622 15.4621 33.2688 15.1687L26.5625 8.45936V35.9375C26.5625 36.3519 26.3979 36.7493 26.1049 37.0423C25.8119 37.3354 25.4144 37.5 25 37.5C24.5856 37.5 24.1882 37.3354 23.8952 37.0423C23.6021 36.7493 23.4375 36.3519 23.4375 35.9375V8.45936L16.7313 15.1687C16.586 15.314 16.4135 15.4292 16.2237 15.5079C16.0339 15.5865 15.8305 15.627 15.625 15.627C15.4196 15.627 15.2161 15.5865 15.0263 15.5079C14.8365 15.4292 14.664 15.314 14.5188 15.1687C14.3735 15.0235 14.2583 14.851 14.1796 14.6612C14.101 14.4714 14.0605 14.2679 14.0605 14.0625C14.0605 13.857 14.101 13.6536 14.1796 13.4638C14.2583 13.274 14.3735 13.1015 14.5188 12.9562L23.8938 3.58124Z" fill="#BC98F3"/>
</svg>
