<svg width="400" height="400" viewBox="0 0 400 400" fill="none" xmlns="http://www.w3.org/2000/svg">
<path d="M380.625 12.5C391.875 96.25 390 163.75 373.125 206.875L218.125 91.875C248.75 60 311.25 21.875 380.625 12.5Z" fill="#DADEE0"/>
<path d="M360.625 201.25L296.875 118.125C296.875 118.125 308.75 72.5 369.375 40.625C387.5 113.125 360.625 201.25 360.625 201.25" fill="#F7A4A4"/>
<path d="M336.25 182.5L296.875 131.25C296.875 131.25 313.125 100 350.625 80C328.75 126.875 336.25 182.5 336.25 182.5" fill="#F78D8D"/>
<path d="M19.375 12.5C8.125 96.25 10 163.75 26.875 206.875L181.875 91.25C151.25 60 88.75 21.875 19.375 12.5Z" fill="#DADEE0"/>
<path d="M39.375 201.25L103.75 118.125C103.75 118.125 91.875 72.5 31.25 40.625C12.5 113.125 39.375 201.25 39.375 201.25Z" fill="#F7A4A4"/>
<path d="M63.75 182.5L103.75 131.25C103.75 131.25 87.5 100 50 80C71.25 126.875 63.75 182.5 63.75 182.5Z" fill="#F78D8D"/>
<path d="M363.75 317.5C368.75 311.875 372.5 307.5 374.375 303.75C384.375 287.5 387.5 270.625 387.5 270.625L375 273.125C375 273.125 389.375 257.5 385.625 224.375L373.125 237.5C373.125 237.5 385 203.75 375 172.5L361.25 182.5C361.25 182.5 365.625 170 361.875 161.25L356.25 165.625C356.25 165.625 366.875 136.25 357.5 124.375C351.875 141.875 345.625 141.875 345.625 141.875C345.625 141.875 353.125 128.75 347.5 123.125C341.25 133.125 336.25 126.875 336.25 123.75C336.875 120 335 114.375 353.125 111.25C338.75 102.5 321.25 108.75 321.25 108.75C321.25 108.75 321.875 99.375 334.375 100C322.5 90 306.25 96.25 306.25 96.25C280.625 76.875 246.25 65.625 199.375 65.625C153.125 65.625 118.75 76.875 92.5 96.25C92.5 96.25 76.25 90.625 64.375 100C76.875 99.375 77.5 108.75 77.5 108.75C77.5 108.75 60.625 102.5 45.625 111.25C63.75 113.75 62.5 119.375 62.5 123.75C62.5 126.875 57.5 133.125 51.25 123.125C45 128.75 53.125 141.875 53.125 141.875C53.125 141.875 46.875 141.875 41.25 124.375C31.875 136.875 42.5 165.625 42.5 165.625L36.875 161.25C33.125 170 37.5 182.5 37.5 182.5L25 172.5C14.375 203.75 26.875 237.5 26.875 237.5L15 224.375C10.625 257.5 25 273.125 25 273.125L12.5 270.625C12.5 270.625 15.625 287.5 25.625 303.75C26.875 306.875 30.625 311.875 36.25 317.5L36.875 318.125C62.5 343.75 125.625 387.5 200 387.5C274.375 387.5 337.5 343.75 363.125 318.125C363.125 317.5 363.75 317.5 363.75 317.5Z" fill="#DADEE0"/>
<path d="M235.625 67.5C224.375 65.625 212.5 65 200 65C187.5 65 175.625 65.625 164.375 67.5C168.75 91.875 181.875 108.75 200 140C218.75 108.125 231.25 91.25 235.625 67.5V67.5ZM292.5 86.25C280.625 79.375 266.875 74.375 251.875 70.625C255.625 85 263.75 95 274.375 113.75C282.5 100.625 288.125 96.875 292.5 86.25ZM148.125 70.625C132.5 74.375 119.375 79.375 107.5 86.25C111.875 97.5 118.125 100.625 125.625 113.75C136.875 94.375 144.375 84.375 148.125 70.625Z" fill="#94989B"/>
<path d="M225 242.5C220 236.875 204.375 236.25 200 236.25C195.625 236.25 180 236.875 175 242.5C171.25 246.875 174.375 256.875 183.75 266.25C190 271.875 195.625 273.75 200 273.75C204.375 273.75 210.625 271.875 216.25 266.25C226.25 256.875 228.75 246.25 225 242.5Z" fill="#4C5359"/>
<path d="M151.875 192.5C151.875 192.5 148.75 163.75 123.75 155C95.625 144.375 76.25 170 70.625 184.375C63.125 205.625 72.5 228.75 75.625 234.375C77.5 238.125 98.75 254.375 145.625 238.75C145.625 238.75 157.5 215 151.875 192.5" fill="white"/>
<path d="M151.875 192.5C149.375 182.5 145 173.75 137.5 166.875C134.375 163.75 130 160.625 125.625 159.375C123.75 158.75 121.25 157.5 118.75 157.5C117.5 156.875 115 156.25 112.5 156.25C103.125 156.25 95 160 88.125 166.25C81.25 172.5 76.25 180.625 73.75 189.375C71.25 198.125 71.875 208.125 73.75 216.875C75 221.25 76.25 226.25 78.125 230.625L78.75 231.875C78.75 231.25 78.75 231.875 78.75 231.875L79.375 232.5C80 233.125 80.625 233.75 81.875 234.375C83.75 235.625 85.625 236.875 87.5 237.5C96.25 241.25 105.625 242.5 115.625 242.5C125.625 242.5 135.625 240.625 145.625 238.125C136.25 242.5 126.25 245 116.25 246.875C106.25 248.125 95 248.125 85 244.375C82.5 243.75 80 242.5 77.5 240.625C76.25 240 75 238.75 73.75 238.125C73.125 238.125 73.125 237.5 72.5 236.875L71.875 236.25L71.25 235.625L70 233.75C67.5 228.75 65.625 223.75 64.375 218.75C61.875 208.75 61.25 197.5 63.75 186.875C66.875 176.25 73.125 166.875 81.25 159.375C89.375 152.5 100.625 147.5 111.875 148.75C114.375 149.375 117.5 149.375 120 150.625C122.5 151.25 125 152.5 127.5 153.75C132.5 156.25 136.25 160 140 163.75C147.5 172.5 151.25 182.5 151.875 192.5" fill="#B2B6B8"/>
<path d="M248.125 192.5C248.125 192.5 251.25 163.75 276.25 155C304.375 144.375 323.75 170 329.375 184.375C336.875 205.625 327.5 228.75 324.375 234.375C322.5 238.125 301.25 254.375 254.375 238.75C254.375 238.75 242.5 215 248.125 192.5" fill="white"/>
<path d="M248.125 192.5C248.75 182.5 252.5 172.5 258.75 163.75C261.875 159.375 266.25 156.25 271.25 153.75C273.75 152.5 276.25 151.25 278.75 150.625C281.25 150 284.375 149.375 286.875 148.75C298.125 147.5 309.375 152.5 317.5 159.375C325.625 166.875 331.875 175.625 335 186.875C337.5 197.5 336.875 208.75 334.375 219.375C333.125 224.375 331.25 229.375 328.75 234.375L327.5 236.25L326.875 236.875V237.5L325.625 238.75C324.375 240 323.125 240.625 321.875 241.25L314.375 245C303.75 248.75 293.125 248.75 283.125 247.5C273.125 245.625 263.125 243.125 253.75 238.75C263.75 240.625 273.75 242.5 283.75 243.125C293.75 243.125 303.75 241.875 311.875 238.125C313.75 237.5 316.25 236.25 317.5 235C318.125 234.375 319.375 233.75 320 233.125L320.625 232.5L321.25 231.25C323.125 226.875 324.375 222.5 325.625 217.5C327.5 208.125 328.125 198.75 325.625 190C323.125 181.25 318.125 173.125 311.25 166.875C304.375 160.625 296.25 156.875 286.875 156.875C284.375 156.875 282.5 157.5 280 157.5C277.5 158.125 275.625 158.75 273.125 159.375C268.75 161.25 265 163.75 261.25 166.875C255 173.75 250.625 183.125 248.125 192.5" fill="#B2B6B8"/>
<path d="M281.25 234.375C298.509 234.375 312.5 220.384 312.5 203.125C312.5 185.866 298.509 171.875 281.25 171.875C263.991 171.875 250 185.866 250 203.125C250 220.384 263.991 234.375 281.25 234.375Z" fill="#4C5359"/>
<path d="M118.75 234.375C136.009 234.375 150 220.384 150 203.125C150 185.866 136.009 171.875 118.75 171.875C101.491 171.875 87.5 185.866 87.5 203.125C87.5 220.384 101.491 234.375 118.75 234.375Z" fill="#4C5359"/>
<path d="M118.75 240.625C126.344 240.625 132.5 233.629 132.5 225C132.5 216.371 126.344 209.375 118.75 209.375C111.156 209.375 105 216.371 105 225C105 233.629 111.156 240.625 118.75 240.625Z" fill="white"/>
<path d="M95.625 207.5C100.112 207.5 103.75 203.303 103.75 198.125C103.75 192.947 100.112 188.75 95.625 188.75C91.1377 188.75 87.5 192.947 87.5 198.125C87.5 203.303 91.1377 207.5 95.625 207.5Z" fill="white"/>
<path d="M281.25 240.625C288.844 240.625 295 233.629 295 225C295 216.371 288.844 209.375 281.25 209.375C273.656 209.375 267.5 216.371 267.5 225C267.5 233.629 273.656 240.625 281.25 240.625Z" fill="white"/>
<path d="M258.125 207.5C262.612 207.5 266.25 203.303 266.25 198.125C266.25 192.947 262.612 188.75 258.125 188.75C253.638 188.75 250 192.947 250 198.125C250 203.303 253.638 207.5 258.125 207.5Z" fill="white"/>
<path d="M253.75 308.125C220 292.5 180 292.5 146.25 308.125C138.125 311.875 148.125 334.375 156.875 330C179.375 319.375 212.5 315.625 243.75 330C251.875 333.75 262.5 312.5 253.75 308.125Z" fill="#4C5359"/>
<path d="M293.75 231.25C263.75 271.875 246.875 309.375 246.875 340C246.875 366.25 268.125 387.5 293.75 387.5C319.375 387.5 340.625 366.25 340.625 340C340.625 309.375 323.125 271.25 293.75 231.25Z" fill="#65B1EF"/>
</svg>
