<svg width="50" height="50" viewBox="0 0 50 50" fill="none" xmlns="http://www.w3.org/2000/svg">
<path d="M6.25 3.125C5.4212 3.125 4.62634 3.45424 4.04029 4.04029C3.45424 4.62634 3.125 5.4212 3.125 6.25V43.75C3.125 44.5788 3.45424 45.3737 4.04029 45.9597C4.62634 46.5458 5.4212 46.875 6.25 46.875H43.75C44.5788 46.875 45.3737 46.5458 45.9597 45.9597C46.5458 45.3737 46.875 44.5788 46.875 43.75V6.25C46.875 5.4212 46.5458 4.62634 45.9597 4.04029C45.3737 3.45424 44.5788 3.125 43.75 3.125H29.6875C28.8587 3.125 28.0638 3.45424 27.4778 4.04029C26.8917 4.62634 26.5625 5.4212 26.5625 6.25V29.0406L34.8312 20.7687C35.1246 20.4754 35.5226 20.3105 35.9375 20.3105C36.3524 20.3105 36.7504 20.4754 37.0438 20.7687C37.3371 21.0621 37.502 21.4601 37.502 21.875C37.502 22.2899 37.3371 22.6879 37.0438 22.9813L26.1063 33.9188C25.9611 34.0643 25.7887 34.1797 25.5989 34.2585C25.409 34.3372 25.2055 34.3778 25 34.3778C24.7945 34.3778 24.591 34.3372 24.4011 34.2585C24.2113 34.1797 24.0389 34.0643 23.8937 33.9188L12.9562 22.9813C12.811 22.836 12.6957 22.6635 12.6171 22.4737C12.5385 22.2839 12.498 22.0805 12.498 21.875C12.498 21.6695 12.5385 21.4661 12.6171 21.2763C12.6957 21.0865 12.811 20.914 12.9562 20.7687C13.1015 20.6235 13.274 20.5082 13.4638 20.4296C13.6536 20.351 13.857 20.3105 14.0625 20.3105C14.268 20.3105 14.4714 20.351 14.6612 20.4296C14.851 20.5082 15.0235 20.6235 15.1688 20.7687L23.4375 29.0406V6.25C23.4375 4.5924 24.096 3.00269 25.2681 1.83058C26.4402 0.65848 28.0299 0 29.6875 0L43.75 0C45.4076 0 46.9973 0.65848 48.1694 1.83058C49.3415 3.00269 50 4.5924 50 6.25V43.75C50 45.4076 49.3415 46.9973 48.1694 48.1694C46.9973 49.3415 45.4076 50 43.75 50H6.25C4.5924 50 3.00269 49.3415 1.83058 48.1694C0.65848 46.9973 0 45.4076 0 43.75V6.25C0 4.5924 0.65848 3.00269 1.83058 1.83058C3.00269 0.65848 4.5924 0 6.25 0L14.0625 0C14.4769 0 14.8743 0.16462 15.1674 0.457646C15.4604 0.750671 15.625 1.1481 15.625 1.5625C15.625 1.9769 15.4604 2.37433 15.1674 2.66735C14.8743 2.96038 14.4769 3.125 14.0625 3.125H6.25Z" fill="#BC98F3"/>
<rect x="0.5" y="0.5" width="49" height="49" rx="7.5" stroke="#F9F4FF"/>
</svg>
