<svg width="38" height="38" viewBox="0 0 38 38" fill="none" xmlns="http://www.w3.org/2000/svg">
<path d="M1.5625 15.6219C1.1481 15.6219 0.750671 15.4573 0.457646 15.1642C0.16462 14.8712 0 14.4738 0 14.0594V1.5625C0 1.1481 0.16462 0.750672 0.457646 0.457646C0.750671 0.16462 1.1481 0 1.5625 0H14.0625C14.4769 0 14.8743 0.16462 15.1674 0.457646C15.4604 0.750672 15.625 1.1481 15.625 1.5625V14.0594C15.625 14.4738 15.4604 14.8712 15.1674 15.1642C14.8743 15.4573 14.4769 15.6219 14.0625 15.6219H1.5625ZM23.4375 15.6219C23.0231 15.6219 22.6257 15.4573 22.3326 15.1642C22.0396 14.8712 21.875 14.4738 21.875 14.0594V1.5625C21.875 1.1481 22.0396 0.750672 22.3326 0.457646C22.6257 0.16462 23.0231 0 23.4375 0H35.9344C36.3488 0 36.7462 0.16462 37.0392 0.457646C37.3323 0.750672 37.4969 1.1481 37.4969 1.5625V14.0594C37.4969 14.4738 37.3323 14.8712 37.0392 15.1642C36.7462 15.4573 36.3488 15.6219 35.9344 15.6219H23.4375ZM1.5625 37.4969C1.1481 37.4969 0.750671 37.3323 0.457646 37.0392C0.16462 36.7462 0 36.3488 0 35.9344V23.4344C0 23.02 0.16462 22.6225 0.457646 22.3295C0.750671 22.0365 1.1481 21.8719 1.5625 21.8719H14.0625C14.4769 21.8719 14.8743 22.0365 15.1674 22.3295C15.4604 22.6225 15.625 23.02 15.625 23.4344V35.9344C15.625 36.3488 15.4604 36.7462 15.1674 37.0392C14.8743 37.3323 14.4769 37.4969 14.0625 37.4969H1.5625ZM23.4375 37.4969C23.0231 37.4969 22.6257 37.3323 22.3326 37.0392C22.0396 36.7462 21.875 36.3488 21.875 35.9344V23.4344C21.875 23.02 22.0396 22.6225 22.3326 22.3295C22.6257 22.0365 23.0231 21.8719 23.4375 21.8719H35.9344C36.3488 21.8719 36.7462 22.0365 37.0392 22.3295C37.3323 22.6225 37.4969 23.02 37.4969 23.4344V35.9344C37.4969 36.3488 37.3323 36.7462 37.0392 37.0392C36.7462 37.3323 36.3488 37.4969 35.9344 37.4969H23.4375Z" fill="#BC98F3"/>
</svg>
